<svg viewBox="0 0 489.04 35.4" xmlns="http://www.w3.org/2000/svg" xmlns:xlink="http://www.w3.org/1999/xlink"><linearGradient id="a" gradientUnits="userSpaceOnUse" x2="489.04" y1="17.7" y2="17.7"><stop offset="0" stop-color="#90cea1"/><stop offset=".56" stop-color="#3cbec9"/><stop offset="1" stop-color="#00b3e5"/></linearGradient><path d="m293.5 0h8.9l8.75 23.2h.1l8.9-23.2h8.35l-14.6 35.4h-6.25zm46.6 0h7.8v35.4h-7.8zm22.2 0h24.05v7.2h-16.25v6.6h15.35v7.2h-15.35v7.2h17.15v7.2h-24.95zm55 0h11.7a33.54 33.54 0 0 1 8.07 1 18.55 18.55 0 0 1 6.68 3 15.1 15.1 0 0 1 4.52 5.53 18.5 18.5 0 0 1 1.73 8.27 16.91 16.91 0 0 1 -1.63 7.58 16.37 16.37 0 0 1 -4.37 5.5 19.52 19.52 0 0 1 -6.35 3.37 24.59 24.59 0 0 1 -7.65 1.15h-12.71zm7.81 28.2h4a21.57 21.57 0 0 0 5-.55 10.87 10.87 0 0 0 4-1.83 8.69 8.69 0 0 0 2.67-3.34 11.92 11.92 0 0 0 1-5.08 9.87 9.87 0 0 0 -1-4.52 9 9 0 0 0 -2.62-3.18 11.68 11.68 0 0 0 -3.88-1.88 17.43 17.43 0 0 0 -4.67-.62h-4.6zm36.13-28.2h13.2a34.42 34.42 0 0 1 4.63.32 12.9 12.9 0 0 1 4.17 1.3 7.88 7.88 0 0 1 3 2.73 8.34 8.34 0 0 1 1.15 4.65 7.42 7.42 0 0 1 -1.67 5 9.28 9.28 0 0 1 -4.43 2.82v.1a10 10 0 0 1 3.18 1 8.38 8.38 0 0 1 2.45 1.85 7.79 7.79 0 0 1 1.57 2.62 9.16 9.16 0 0 1 .55 3.2 8.52 8.52 0 0 1 -1.2 4.68 9.42 9.42 0 0 1 -3.1 3 13.38 13.38 0 0 1 -4.27 1.65 23.11 23.11 0 0 1 -4.73.5h-14.5zm7.76 14.15h5.65a8.16 8.16 0 0 0 1.78-.2 4.78 4.78 0 0 0 1.57-.65 3.34 3.34 0 0 0 1.13-1.2 3.63 3.63 0 0 0 .42-1.8 3.22 3.22 0 0 0 -.47-1.82 3.33 3.33 0 0 0 -1.23-1.13 5.77 5.77 0 0 0 -1.7-.58 10.79 10.79 0 0 0 -1.85-.17h-5.3zm0 14.65h7a8.91 8.91 0 0 0 1.83-.2 4.78 4.78 0 0 0 1.67-.7 4 4 0 0 0 1.23-1.3 3.71 3.71 0 0 0 .47-2 3.13 3.13 0 0 0 -.62-2 4 4 0 0 0 -1.58-1.15 7.83 7.83 0 0 0 -2-.55 15.12 15.12 0 0 0 -2.05-.15h-5.95zm-265 6.53h67a17.66 17.66 0 0 0 17.66-17.66 17.67 17.67 0 0 0 -17.66-17.67h-66.94a17.67 17.67 0 0 0 -17.66 17.67 17.66 17.66 0 0 0 17.66 17.66zm-193.9-28.43h-10.1v-6.9h28v6.9h-10.1v28.5h-7.8zm28.9-6.9h7.8v13.2h15.1v-13.2h7.8v35.4h-7.8v-15.3h-15.15v15.3h-7.75zm41.2 0h24v7.2h-16.2v6.6h15.35v7.2h-15.35v7.2h17.15v7.2h-25zm55 0h11.8l8.15 23.1h.1l8.2-23.1h11.75v35.4h-7.8v-27.15h-.1l-9.3 27.15h-5.95l-9-27.15h-.05v27.15h-7.8z" fill="url(#a)"/></svg>